<?xml version="1.0" encoding="iso-8859-1"?>
<!-- Uploaded to: SVG Repo, www.svgrepo.com, Generator: SVG Repo Mixer Tools -->
<svg fill="#000000" height="800px" width="800px" version="1.1" id="Layer_1" xmlns="http://www.w3.org/2000/svg" xmlns:xlink="http://www.w3.org/1999/xlink" 
	 viewBox="0 0 512 512" xml:space="preserve">
<g>
	<g>
		<path d="M256,0C114.623,0,0,114.614,0,256c0,141.377,114.623,256,256,256c141.386,0,256-114.623,256-256
			C512,114.614,397.39,0,256,0z M180.613,389.67c-11.23,0-20.371-9.132-20.371-20.362c0-11.234,9.136-20.379,20.371-20.379
			c3.639,0,7.007,1.036,9.964,2.713c0.031,0.018,0.062,0.035,0.093,0.053c6.126,3.515,10.314,10.052,10.314,17.613
			C200.984,380.539,191.843,389.67,180.613,389.67z M305.961,354.259h-80.942c-5.905-17.374-21.699-30.184-40.657-31.693
			l-9.663-122.679h160.902L305.961,354.259z M344.72,175.186H164.461v-25.651H344.72V175.186z"/>
	</g>
</g>
</svg>